<svg xmlns="http://www.w3.org/2000/svg" width="186" height="67" viewBox="0 0 186 67" fill="none">
  <path d="M30.3845 34.3603V18.6449H42.717C44.675 18.6449 46.1563 19.014 47.161 19.7521C48.1758 20.4799 48.6833 21.5461 48.6833 22.9505C48.6833 23.4221 48.6013 23.8475 48.4373 24.2268C48.2732 24.6061 48.0579 24.9342 47.7914 25.2109C47.5249 25.4775 47.2225 25.6928 46.8842 25.8568C46.5561 26.0208 46.2229 26.1233 45.8847 26.1643C46.346 26.2566 46.7663 26.4155 47.1456 26.641C47.5351 26.8665 47.8683 27.1433 48.1451 27.4714C48.4219 27.7892 48.6372 28.148 48.7909 28.5478C48.9447 28.9476 49.0216 29.3679 49.0216 29.8087C49.0216 30.6288 48.8678 31.331 48.5603 31.9154C48.2527 32.4894 47.8222 32.961 47.2686 33.3301C46.715 33.6889 46.0487 33.9503 45.2696 34.1143C44.5007 34.2783 43.6498 34.3603 42.717 34.3603H30.3845ZM42.717 31.1465C43.0553 31.1465 43.3731 31.1209 43.6703 31.0696C43.9676 31.0184 44.2239 30.9312 44.4392 30.8082C44.6647 30.6749 44.839 30.5058 44.962 30.3008C45.0953 30.0855 45.1619 29.8189 45.1619 29.5012C45.1619 29.1834 45.0953 28.922 44.962 28.7169C44.839 28.5016 44.6647 28.3325 44.4392 28.2095C44.2239 28.0762 43.9676 27.9839 43.6703 27.9327C43.3731 27.8814 43.0553 27.8558 42.717 27.8558H34.2442V31.1465H42.717ZM42.717 24.6574C43.4551 24.6574 43.9881 24.5497 44.3162 24.3344C44.6545 24.1089 44.8236 23.7501 44.8236 23.258C44.8236 22.7557 44.6545 22.3969 44.3162 22.1817C43.9881 21.9664 43.4551 21.8587 42.717 21.8587H34.2442V24.6574H42.717Z" fill="black"/>
  <path d="M70.2881 34.3603H66.4285V23.6886L56.4949 34.3603H52.4045V18.6449H56.2642V29.3166L66.1978 18.6449H70.2881V34.3603Z" fill="black"/>
  <path d="M93.4922 31.1465H95.9371V37.8202H92.0775V34.3603H76.7773V37.8202H72.9176V31.1465H75.9161C76.2032 30.6749 76.4543 30.1316 76.6696 29.5165C76.8952 28.9014 77.0848 28.2556 77.2386 27.579C77.4026 26.9024 77.5359 26.2156 77.6384 25.5185C77.7512 24.8111 77.8434 24.1243 77.9152 23.458C78.0792 21.91 78.1663 20.3056 78.1766 18.6449H93.4922V31.1465ZM89.6325 31.1465V21.8587H81.7441C81.7441 22.4533 81.7133 23.1504 81.6518 23.95C81.5903 24.7394 81.4878 25.5595 81.3443 26.4104C81.211 27.2612 81.0367 28.1018 80.8214 28.9322C80.6164 29.7523 80.3653 30.4904 80.068 31.1465H89.6325Z" fill="black"/>
  <path d="M99.3047 19.9673C99.8891 19.6701 100.591 19.3984 101.411 19.1524C102.119 18.9473 102.99 18.7628 104.026 18.5988C105.071 18.4245 106.291 18.3374 107.685 18.3374C109.264 18.3374 110.586 18.4758 111.653 18.7526C112.719 19.0191 113.575 19.4394 114.221 20.0135C114.877 20.5876 115.343 21.3257 115.62 22.2278C115.907 23.1197 116.05 24.1909 116.05 25.4416V34.3603H112.191V31.8846C111.606 32.879 110.74 33.5915 109.592 34.022C108.454 34.4526 107.106 34.6679 105.548 34.6679C104.389 34.6679 103.339 34.5654 102.396 34.3603C101.463 34.145 100.663 33.817 99.9967 33.3762C99.3406 32.9354 98.8332 32.3818 98.4744 31.7155C98.1258 31.0389 97.9516 30.2444 97.9516 29.332C97.9516 28.4094 98.1566 27.6251 98.5666 26.9793C98.9767 26.3232 99.5303 25.785 100.227 25.3647C100.924 24.9444 101.739 24.6215 102.672 24.396C103.615 24.1704 104.615 24.0218 105.671 23.95C106.727 23.868 107.808 23.8475 108.915 23.8885C110.033 23.9295 111.125 24.0064 112.191 24.1192C112.191 23.6271 112.129 23.217 112.006 22.889C111.883 22.561 111.653 22.2995 111.314 22.1048C110.986 21.8997 110.53 21.7562 109.946 21.6742C109.361 21.5922 108.608 21.5512 107.685 21.5512C106.67 21.5512 105.748 21.6178 104.917 21.7511C104.097 21.8741 103.38 22.0125 102.765 22.1663C102.047 22.3508 101.406 22.5558 100.842 22.7814L99.3047 19.9673ZM101.827 29.1782C101.827 29.9983 102.185 30.5827 102.903 30.9312C103.631 31.2798 104.717 31.454 106.163 31.454C107.239 31.454 108.162 31.3464 108.931 31.1311C109.7 30.9159 110.325 30.6288 110.807 30.27C111.299 29.901 111.653 29.4858 111.868 29.0245C112.093 28.5632 112.201 28.0865 112.191 27.5944V26.887C111.934 26.846 111.586 26.8102 111.145 26.7794C110.715 26.7384 110.233 26.7076 109.7 26.6871C109.167 26.6666 108.598 26.6615 107.993 26.6718C107.398 26.6718 106.809 26.7025 106.224 26.764C105.65 26.8153 105.097 26.8973 104.564 27.0101C104.031 27.1228 103.559 27.2766 103.149 27.4714C102.749 27.6662 102.426 27.9019 102.18 28.1787C101.944 28.4555 101.827 28.7887 101.827 29.1782Z" fill="black"/>
  <path d="M138.178 18.6449V34.3603H134.318V21.8434H124.954V27.8404C124.954 29.0193 124.831 30.0035 124.585 30.7928C124.339 31.5822 124.021 32.2229 123.631 32.715C123.252 33.1968 122.821 33.5556 122.34 33.7914C121.868 34.0272 121.402 34.1912 120.94 34.2834C120.479 34.3654 120.043 34.4013 119.633 34.3911C119.233 34.3808 118.916 34.3706 118.68 34.3603V31.1465C118.926 31.167 119.187 31.1619 119.464 31.1311C119.751 31.0901 120.018 30.9671 120.264 30.7621C120.51 30.5468 120.71 30.2136 120.863 29.7626C121.027 29.3115 121.109 28.6708 121.109 27.8404V18.6449H138.178Z" fill="black"/>
  <path d="M142.914 19.9673C143.499 19.6701 144.201 19.3984 145.021 19.1524C145.728 18.9473 146.6 18.7628 147.635 18.5988C148.681 18.4245 149.901 18.3374 151.295 18.3374C152.873 18.3374 154.196 18.4758 155.262 18.7526C156.328 19.0191 157.184 19.4394 157.83 20.0135C158.486 20.5876 158.953 21.3257 159.229 22.2278C159.516 23.1197 159.66 24.1909 159.66 25.4416V34.3603H155.8V31.8846C155.216 32.879 154.35 33.5915 153.202 34.022C152.064 34.4526 150.716 34.6679 149.157 34.6679C147.999 34.6679 146.948 34.5654 146.005 34.3603C145.072 34.145 144.273 33.817 143.606 33.3762C142.95 32.9354 142.443 32.3818 142.084 31.7155C141.735 31.0389 141.561 30.2444 141.561 29.332C141.561 28.4094 141.766 27.6251 142.176 26.9793C142.586 26.3232 143.14 25.785 143.837 25.3647C144.534 24.9444 145.349 24.6215 146.282 24.396C147.225 24.1704 148.224 24.0218 149.28 23.95C150.336 23.868 151.418 23.8475 152.525 23.8885C153.642 23.9295 154.734 24.0064 155.8 24.1192C155.8 23.6271 155.739 23.217 155.616 22.889C155.493 22.561 155.262 22.2995 154.924 22.1048C154.596 21.8997 154.14 21.7562 153.555 21.6742C152.971 21.5922 152.217 21.5512 151.295 21.5512C150.28 21.5512 149.357 21.6178 148.527 21.7511C147.707 21.8741 146.989 22.0125 146.374 22.1663C145.656 22.3508 145.016 22.5558 144.452 22.7814L142.914 19.9673ZM145.436 29.1782C145.436 29.9983 145.795 30.5827 146.512 30.9312C147.24 31.2798 148.327 31.454 149.772 31.454C150.849 31.454 151.771 31.3464 152.54 31.1311C153.309 30.9159 153.934 30.6288 154.416 30.27C154.908 29.901 155.262 29.4858 155.477 29.0245C155.703 28.5632 155.811 28.0865 155.8 27.5944V26.887C155.544 26.846 155.195 26.8102 154.755 26.7794C154.324 26.7384 153.842 26.7076 153.309 26.6871C152.776 26.6666 152.207 26.6615 151.602 26.6718C151.008 26.6718 150.418 26.7025 149.834 26.764C149.26 26.8153 148.706 26.8973 148.173 27.0101C147.64 27.1228 147.169 27.2766 146.759 27.4714C146.359 27.6662 146.036 27.9019 145.79 28.1787C145.554 28.4555 145.436 28.7887 145.436 29.1782Z" fill="black"/>
  <path d="M46.9303 43.104V46.3178H34.2442V58.8194H30.3845V43.104H46.9303Z" fill="black"/>
  <path d="M50.0057 43.104H53.8654V46.041C54.1524 45.5489 54.5215 45.103 54.9725 44.7032C55.4338 44.3034 55.9618 43.9651 56.5564 43.6883C57.1509 43.4012 57.8019 43.1808 58.5093 43.0271C59.2269 42.8733 59.9803 42.7964 60.7697 42.7964C62.2869 42.7964 63.6247 43.0066 64.7831 43.4269C65.9415 43.8369 66.9052 44.411 67.674 45.1491C68.4531 45.877 69.0375 46.7381 69.427 47.7325C69.8268 48.7269 70.0267 49.8033 70.0267 50.9617C70.0267 52.1201 69.8268 53.2016 69.427 54.2062C69.0375 55.2006 68.4531 56.0617 67.674 56.7896C66.9052 57.5174 65.9415 58.0915 64.7831 58.5118C63.6247 58.9219 62.2869 59.1269 60.7697 59.1269C59.9803 59.1269 59.2269 59.05 58.5093 58.8963C57.8019 58.7425 57.1509 58.5272 56.5564 58.2504C55.9618 57.9634 55.4338 57.6199 54.9725 57.2201C54.5215 56.8203 54.1524 56.3744 53.8654 55.8823V67H50.0057V43.104ZM59.9701 46.0256C58.8424 46.0256 57.889 46.164 57.1099 46.4408C56.3411 46.7073 55.7158 47.0713 55.2339 47.5326C54.7521 47.9836 54.4036 48.5064 54.1883 49.101C53.973 49.6956 53.8654 50.3158 53.8654 50.9617C53.8654 51.6075 53.9628 52.2277 54.1575 52.8223C54.3626 53.4169 54.7009 53.9448 55.1724 54.4061C55.644 54.8572 56.2693 55.2211 57.0484 55.4979C57.8378 55.7644 58.8117 55.8977 59.9701 55.8977C61.0875 55.8977 62.0357 55.7644 62.8148 55.4979C63.594 55.2211 64.2244 54.8572 64.7062 54.4061C65.1881 53.9448 65.5366 53.4169 65.7519 52.8223C65.9672 52.2277 66.0748 51.6075 66.0748 50.9617C66.0748 50.3158 65.9672 49.6956 65.7519 49.101C65.5366 48.5064 65.1881 47.9836 64.7062 47.5326C64.2244 47.0713 63.594 46.7073 62.8148 46.4408C62.0357 46.164 61.0875 46.0256 59.9701 46.0256Z" fill="black"/>
  <path d="M83.3433 42.7964C85.0963 42.7964 86.634 43.0014 87.9564 43.4115C89.2789 43.8216 90.3758 44.3956 91.2471 45.1337C92.1288 45.8616 92.79 46.7227 93.2308 47.7171C93.6716 48.7115 93.892 49.793 93.892 50.9617C93.892 52.1303 93.6716 53.2118 93.2308 54.2062C92.79 55.2006 92.1288 56.0669 91.2471 56.805C90.3758 57.5328 89.2789 58.1018 87.9564 58.5118C86.634 58.9219 85.0963 59.1269 83.3433 59.1269C81.5903 59.1269 80.0526 58.9219 78.7302 58.5118C77.4077 58.1018 76.3057 57.5328 75.4241 56.805C74.5527 56.0669 73.8966 55.2006 73.4558 54.2062C73.015 53.2118 72.7946 52.1303 72.7946 50.9617C72.7946 49.793 73.015 48.7115 73.4558 47.7171C73.8966 46.7227 74.5527 45.8616 75.4241 45.1337C76.3057 44.3956 77.4077 43.8216 78.7302 43.4115C80.0526 43.0014 81.5903 42.7964 83.3433 42.7964ZM83.3433 46.0102C82.1131 46.0102 81.0777 46.1486 80.2371 46.4254C79.3965 46.6919 78.7148 47.0559 78.192 47.5172C77.6794 47.9785 77.3103 48.5064 77.0848 49.101C76.8593 49.6956 76.7465 50.3158 76.7465 50.9617C76.7465 51.6075 76.8593 52.2277 77.0848 52.8223C77.3103 53.4169 77.6794 53.9448 78.192 54.4061C78.7148 54.8674 79.3965 55.2365 80.2371 55.5133C81.0777 55.7798 82.1131 55.9131 83.3433 55.9131C84.5735 55.9131 85.6089 55.7798 86.4495 55.5133C87.2901 55.2365 87.9667 54.8674 88.4793 54.4061C89.0021 53.9448 89.3763 53.4169 89.6018 52.8223C89.8273 52.2277 89.9401 51.6075 89.9401 50.9617C89.9401 50.3158 89.8273 49.6956 89.6018 49.101C89.3763 48.5064 89.0021 47.9785 88.4793 47.5172C87.9667 47.0559 87.2901 46.6919 86.4495 46.4254C85.6089 46.1486 84.5735 46.0102 83.3433 46.0102Z" fill="black"/>
  <path d="M107.578 53.7295L113.052 43.104H117.88V58.8194H114.021V48.8396L108.885 58.8194H106.271L101.135 48.8396V58.8194H97.275V43.104H102.103L107.578 53.7295Z" fill="black"/>
  <path d="M122.616 44.4264C123.201 44.1291 123.903 43.8574 124.723 43.6114C125.43 43.4064 126.302 43.2218 127.337 43.0578C128.383 42.8836 129.603 42.7964 130.997 42.7964C132.576 42.7964 133.898 42.9348 134.964 43.2116C136.03 43.4781 136.886 43.8984 137.532 44.4725C138.188 45.0466 138.655 45.7847 138.932 46.6868C139.219 47.5787 139.362 48.65 139.362 49.9006V58.8194H135.502V56.3437C134.918 57.338 134.052 58.0505 132.904 58.4811C131.766 58.9116 130.418 59.1269 128.86 59.1269C127.701 59.1269 126.65 59.0244 125.707 58.8194C124.774 58.6041 123.975 58.276 123.308 57.8352C122.652 57.3944 122.145 56.8408 121.786 56.1745C121.438 55.4979 121.263 54.7034 121.263 53.791C121.263 52.8684 121.468 52.0842 121.878 51.4384C122.288 50.7823 122.842 50.2441 123.539 49.8238C124.236 49.4034 125.051 49.0805 125.984 48.855C126.927 48.6295 127.927 48.4808 128.983 48.4091C130.038 48.327 131.12 48.3065 132.227 48.3476C133.345 48.3886 134.436 48.4654 135.502 48.5782C135.502 48.0861 135.441 47.6761 135.318 47.348C135.195 47.02 134.964 46.7586 134.626 46.5638C134.298 46.3588 133.842 46.2153 133.257 46.1332C132.673 46.0512 131.92 46.0102 130.997 46.0102C129.982 46.0102 129.059 46.0769 128.229 46.2101C127.409 46.3331 126.691 46.4715 126.076 46.6253C125.359 46.8098 124.718 47.0149 124.154 47.2404L122.616 44.4264ZM125.138 53.6373C125.138 54.4574 125.497 55.0417 126.215 55.3903C126.943 55.7388 128.029 55.9131 129.475 55.9131C130.551 55.9131 131.474 55.8055 132.243 55.5902C133.011 55.3749 133.637 55.0879 134.119 54.7291C134.611 54.36 134.964 53.9448 135.18 53.4835C135.405 53.0222 135.513 52.5455 135.502 52.0534V51.3461C135.246 51.3051 134.898 51.2692 134.457 51.2384C134.026 51.1974 133.544 51.1667 133.011 51.1462C132.478 51.1257 131.909 51.1206 131.305 51.1308C130.71 51.1308 130.12 51.1616 129.536 51.2231C128.962 51.2743 128.408 51.3563 127.875 51.4691C127.342 51.5819 126.871 51.7356 126.461 51.9304C126.061 52.1252 125.738 52.361 125.492 52.6378C125.256 52.9146 125.138 53.2477 125.138 53.6373Z" fill="black"/>
  <path d="M162.566 55.6055H165.011V62.2792H161.151V58.8194H145.851V62.2792H141.992V55.6055H144.99C145.277 55.134 145.528 54.5907 145.744 53.9756C145.969 53.3605 146.159 52.7147 146.313 52.0381C146.477 51.3615 146.61 50.6746 146.712 49.9775C146.825 49.2702 146.917 48.5833 146.989 47.917C147.153 46.369 147.24 44.7647 147.251 43.104H162.566V55.6055ZM158.707 55.6055V46.3178H150.818C150.818 46.9124 150.787 47.6094 150.726 48.4091C150.664 49.1984 150.562 50.0185 150.418 50.8694C150.285 51.7203 150.111 52.5609 149.895 53.3912C149.69 54.2114 149.439 54.9495 149.142 55.6055H158.707Z" fill="black"/>
  <path d="M168.379 44.4264C168.963 44.1291 169.665 43.8574 170.485 43.6114C171.193 43.4064 172.064 43.2218 173.1 43.0578C174.145 42.8836 175.365 42.7964 176.759 42.7964C178.338 42.7964 179.66 42.9348 180.727 43.2116C181.793 43.4781 182.649 43.8984 183.295 44.4725C183.951 45.0466 184.417 45.7847 184.694 46.6868C184.981 47.5787 185.124 48.65 185.124 49.9006V58.8194H181.265V56.3437C180.68 57.338 179.814 58.0505 178.666 58.4811C177.528 58.9116 176.18 59.1269 174.622 59.1269C173.463 59.1269 172.413 59.0244 171.47 58.8194C170.537 58.6041 169.737 58.276 169.071 57.8352C168.415 57.3944 167.907 56.8408 167.548 56.1745C167.2 55.4979 167.026 54.7034 167.026 53.791C167.026 52.8684 167.231 52.0842 167.641 51.4384C168.051 50.7823 168.604 50.2441 169.301 49.8238C169.998 49.4034 170.813 49.0805 171.746 48.855C172.689 48.6295 173.689 48.4808 174.745 48.4091C175.801 48.327 176.882 48.3065 177.989 48.3476C179.107 48.3886 180.199 48.4654 181.265 48.5782C181.265 48.0861 181.203 47.6761 181.08 47.348C180.957 47.02 180.727 46.7586 180.388 46.5638C180.06 46.3588 179.604 46.2153 179.02 46.1332C178.435 46.0512 177.682 46.0102 176.759 46.0102C175.744 46.0102 174.822 46.0769 173.991 46.2101C173.171 46.3331 172.454 46.4715 171.839 46.6253C171.121 46.8098 170.48 47.0149 169.916 47.2404L168.379 44.4264ZM170.901 53.6373C170.901 54.4574 171.259 55.0417 171.977 55.3903C172.705 55.7388 173.791 55.9131 175.237 55.9131C176.313 55.9131 177.236 55.8055 178.005 55.5902C178.774 55.3749 179.399 55.0879 179.881 54.7291C180.373 54.36 180.727 53.9448 180.942 53.4835C181.167 53.0222 181.275 52.5455 181.265 52.0534V51.3461C181.008 51.3051 180.66 51.2692 180.219 51.2384C179.789 51.1974 179.307 51.1667 178.774 51.1462C178.241 51.1257 177.672 51.1206 177.067 51.1308C176.472 51.1308 175.883 51.1616 175.298 51.2231C174.724 51.2743 174.171 51.3563 173.638 51.4691C173.105 51.5819 172.633 51.7356 172.223 51.9304C171.823 52.1252 171.5 52.361 171.254 52.6378C171.018 52.9146 170.901 53.2477 170.901 53.6373Z" fill="black"/>
  <path d="M0 18.2463L11.21 22.2405L22.42 18.2463V33.6203L11.21 37.6145L0 33.6203V18.2463Z" fill="#ACBE1A"/>
  <path fill-rule="evenodd" clip-rule="evenodd" d="M11.2306 0L22.3734 8.01024L20.3513 10.823L12.9627 5.51152V17.6766H9.49855V5.51152L2.10993 10.823L0.0878906 8.01024L11.2306 0Z" fill="black"/>
</svg>